<?xml version="1.0" encoding="utf-8"?>
<!-- Generator: Adobe Illustrator 24.1.0, SVG Export Plug-In . SVG Version: 6.00 Build 0)  -->
<svg version="1.1" id="Layer_1" xmlns="http://www.w3.org/2000/svg" xmlns:xlink="http://www.w3.org/1999/xlink" x="0px" y="0px"
	 viewBox="0 0 520 520" style="enable-background:new 0 0 520 520;" xml:space="preserve">
<style type="text/css">
	.st0{fill:none;}
	.st1{fill:#FFFFFF;}
</style>
<g id="_x39_39-People_x2C__Team_x2C__Users_x2C__Work">
	<path class="st0" d="M260,445.1c21.5,0,40.8,9.7,53.6,25l0,0c-12.8,15.3-32.1,25-53.6,25s-40.8-9.7-53.6-25l0,0
		C219.2,454.8,238.5,445.1,260,445.1z"/>
	<path class="st0" d="M366.4,310.1c12.9-15.3,32.1-25,53.6-25s40.8,9.7,53.6,25l0,0c-9.2,11-21.8,19.1-36.1,22.8l0,0
		c-5.6,1.4-11.5,2.2-17.5,2.2C398.5,335.1,379.2,325.4,366.4,310.1L366.4,310.1z"/>
	<path class="st0" d="M260,125.1c21.5,0,40.8,9.7,53.6,25l0,0c-12.8,15.3-32.1,25-53.6,25s-40.8-9.7-53.6-25l0,0
		C219.2,134.8,238.5,125.1,260,125.1z"/>
	<path class="st0" d="M100,285.1c21.5,0,40.8,9.7,53.6,25l0,0c-12.8,15.3-32.1,25-53.6,25c-6.1,0-11.9-0.8-17.5-2.2l0,0
		c-14.3-3.7-26.9-11.8-36.1-22.8l0,0C59.2,294.8,78.5,285.1,100,285.1z"/>
	<path class="st0" d="M445,55.1c13.8,0,25,11.2,25,25s-11.2,25-25,25s-25-11.2-25-25S431.2,55.1,445,55.1z"/>
	<path class="st0" d="M90,425.1c11.1,0,20,9,20,20s-8.9,20-20,20s-20-9-20-20S78.9,425.1,90,425.1z"/>
	<circle class="st0" cx="260" cy="265.1" r="40"/>
	<path class="st0" d="M260,395.1c13.8,0,25,11.2,25,25s-11.2,25-25,25s-25-11.2-25-25S246.2,395.1,260,395.1z"/>
	<path class="st0" d="M420,235.1c13.8,0,25,11.2,25,25c0,13.8-11.2,25-25,25s-25-11.2-25-25S406.2,235.1,420,235.1z"/>
	<path class="st0" d="M260,75.1c13.8,0,25,11.2,25,25s-11.2,25-25,25s-25-11.2-25-25S246.2,75.1,260,75.1z"/>
	<path class="st0" d="M100,235.1c13.8,0,25,11.2,25,25c0,13.8-11.2,25-25,25s-25-11.2-25-25S86.2,235.1,100,235.1z"/>
	<path class="st0" d="M330,425.1c0,6.1-0.8,11.9-2.2,17.5l0,0c-2.6,10.3-7.5,19.6-14.2,27.5l0,0c-12.9-15.3-32.1-25-53.6-25
		c13.8,0,25-11.2,25-25s-11.2-25-25-25s-25,11.2-25,25s11.2,25,25,25c-21.5,0-40.8,9.7-53.6,25l0,0c-6.6-7.9-11.5-17.2-14.2-27.5
		l0,0c-1.4-5.6-2.2-11.5-2.2-17.5c0-38.7,31.3-70,70-70S330,386.4,330,425.1z"/>
	<path class="st0" d="M490,265.1c0,17.1-6.2,32.8-16.4,45l0,0c-12.9-15.3-32.1-25-53.6-25c13.8,0,25-11.2,25-25s-11.2-25-25-25
		s-25,11.2-25,25c0,13.8,11.2,25,25,25c-21.5,0-40.8,9.7-53.6,25l0,0c-10.2-12.2-16.4-27.9-16.4-45c0-38.7,31.3-70,70-70
		c6.1,0,11.9,0.8,17.5,2.2l0,0C467.7,205.1,490,232.5,490,265.1z"/>
	<path class="st0" d="M327.8,87.6c1.4,5.6,2.2,11.5,2.2,17.5c0,17.1-6.2,32.8-16.4,45l0,0c-12.9-15.3-32.1-25-53.6-25
		c13.8,0,25-11.2,25-25s-11.2-25-25-25s-25,11.2-25,25s11.2,25,25,25c-21.5,0-40.8,9.7-53.6,25l0,0c-10.2-12.2-16.4-27.9-16.4-45
		c0-6.1,0.8-11.9,2.2-17.5l0,0c7.8-30.2,35.2-52.5,67.8-52.5S320,57.4,327.8,87.6L327.8,87.6z"/>
	<path class="st0" d="M170,265.1c0,17.1-6.2,32.8-16.4,45l0,0c-12.8-15.3-32.1-25-53.6-25c13.8,0,25-11.2,25-25s-11.2-25-25-25
		s-25,11.2-25,25c0,13.8,11.2,25,25,25c-21.5,0-40.8,9.7-53.6,25l0,0c-10.2-12.2-16.4-27.9-16.4-45c0-32.6,22.3-60,52.5-67.8l0,0
		c5.6-1.4,11.5-2.2,17.5-2.2C138.7,195.1,170,226.4,170,265.1z"/>
	<path class="st1" d="M450,135.1c5.5,0,10,4.5,10,10s-4.5,10-10,10s-10-4.5-10-10S444.5,135.1,450,135.1z"/>
	<path class="st1" d="M450,405.1c5.5,0,10,4.5,10,10s-4.5,10-10,10s-10-4.5-10-10S444.5,405.1,450,405.1z"/>
	<path class="st1" d="M390,455.1c5.5,0,10,4.5,10,10s-4.5,10-10,10s-10-4.5-10-10S384.5,455.1,390,455.1z"/>
	<path class="st1" d="M150,445.1c5.5,0,10,4.5,10,10s-4.5,10-10,10s-10-4.5-10-10S144.5,445.1,150,445.1z"/>
	<path class="st1" d="M110,55.1c5.5,0,10,4.5,10,10s-4.5,10-10,10s-10-4.5-10-10S104.5,55.1,110,55.1z"/>
	<path class="st1" d="M50,115.1c5.5,0,10,4.5,10,10s-4.5,10-10,10s-10-4.5-10-10S44.5,115.1,50,115.1z"/>
	<path class="st1" d="M100,295.1c-19.3,0-35-15.7-35-35s15.7-35,35-35s35,15.7,35,35S119.3,295.1,100,295.1z M100,245.1
		c-8.3,0-15,6.7-15,15c0,8.3,6.7,15,15,15s15-6.7,15-15S108.3,245.1,100,245.1z"/>
	<path class="st1" d="M153.6,320.1c-2.9,0-5.7-1.2-7.7-3.6c-11.4-13.6-28.1-21.4-45.9-21.4s-34.5,7.8-45.9,21.4
		c-3.6,4.2-9.9,4.8-14.1,1.2c-4.2-3.6-4.8-9.9-1.2-14.1c15.2-18.1,37.5-28.5,61.2-28.5s46,10.4,61.3,28.6c3.6,4.2,3,10.5-1.2,14.1
		C158.2,319.3,155.9,320.1,153.6,320.1z"/>
	<path class="st1" d="M420,295.1c-19.3,0-35-15.7-35-35s15.7-35,35-35s35,15.7,35,35S439.3,295.1,420,295.1z M420,245.1
		c-8.3,0-15,6.7-15,15c0,8.3,6.7,15,15,15s15-6.7,15-15S428.3,245.1,420,245.1z"/>
	<path class="st1" d="M473.6,320.1c-2.9,0-5.7-1.2-7.7-3.6c-11.5-13.6-28.2-21.4-46-21.4s-34.5,7.8-46,21.4
		c-3.6,4.2-9.9,4.8-14.1,1.2s-4.8-9.9-1.2-14.1c15.4-18.1,37.7-28.5,61.4-28.5s46,10.4,61.3,28.6c3.6,4.2,3,10.5-1.2,14.1
		C478.2,319.3,475.9,320.1,473.6,320.1z"/>
	<path class="st1" d="M260,455.1c-19.3,0-35-15.7-35-35s15.7-35,35-35s35,15.7,35,35S279.3,455.1,260,455.1z M260,405.1
		c-8.3,0-15,6.7-15,15s6.7,15,15,15c8.3,0,15-6.7,15-15S268.3,405.1,260,405.1z"/>
	<path class="st1" d="M206.4,480.1c-2.3,0-4.6-0.8-6.4-2.3c-4.2-3.6-4.8-9.9-1.2-14.1c15.2-18.2,37.5-28.6,61.2-28.6
		s46,10.4,61.3,28.6c3.6,4.2,3,10.5-1.2,14.1s-10.5,3-14.1-1.2c-11.5-13.6-28.2-21.4-46-21.4s-34.5,7.8-45.9,21.4
		C212.1,478.9,209.2,480.1,206.4,480.1z"/>
	<path class="st1" d="M260,135.1c-19.3,0-35-15.7-35-35s15.7-35,35-35s35,15.7,35,35S279.3,135.1,260,135.1z M260,85.1
		c-8.3,0-15,6.7-15,15s6.7,15,15,15c8.3,0,15-6.7,15-15S268.3,85.1,260,85.1z"/>
	<path class="st1" d="M313.6,160.1c-2.9,0-5.7-1.2-7.7-3.6c-11.5-13.6-28.2-21.4-46-21.4s-34.5,7.8-45.9,21.4
		c-3.6,4.2-9.9,4.8-14.1,1.2c-4.2-3.6-4.8-9.9-1.2-14.1c15.3-18.1,37.6-28.5,61.3-28.5s46,10.4,61.3,28.6c3.6,4.2,3,10.5-1.2,14.1
		C318.2,159.3,315.9,160.1,313.6,160.1z"/>
	<path class="st1" d="M192.2,452.6c-1.2,0-2.4-0.2-3.6-0.7c-53.1-20.3-95.2-62.4-115.5-115.5c-2-5.2,0.6-10.9,5.8-12.9
		c5.2-2,10.9,0.6,12.9,5.8c18.3,47.8,56.2,85.7,104,104c5.2,2,7.7,7.8,5.8,12.9C200,450.2,196.2,452.6,192.2,452.6z"/>
	<path class="st1" d="M82.5,207.3c-1.2,0-2.4-0.2-3.6-0.7c-5.2-2-7.7-7.8-5.8-12.9c20.3-53.1,62.4-95.2,115.5-115.5
		c5.2-2,10.9,0.6,12.9,5.8c2,5.2-0.6,10.9-5.8,12.9c-47.8,18.3-85.7,56.2-104,104C90.3,204.9,86.5,207.3,82.5,207.3z"/>
	<path class="st1" d="M437.5,207.3c-4,0-7.8-2.4-9.3-6.4c-18.3-47.8-56.2-85.7-104-104c-5.2-2-7.7-7.8-5.8-12.9
		c2-5.2,7.8-7.7,12.9-5.8c53.1,20.3,95.2,62.4,115.5,115.5c2,5.2-0.6,10.9-5.8,12.9C439.9,207.1,438.7,207.3,437.5,207.3z"/>
	<path class="st1" d="M327.8,452.6c-4,0-7.8-2.4-9.3-6.4c-2-5.2,0.6-10.9,5.8-12.9c47.8-18.3,85.7-56.2,104-104
		c2-5.2,7.8-7.7,12.9-5.8c5.2,2,7.7,7.8,5.8,12.9c-20.3,53.1-62.4,95.2-115.5,115.5C330.2,452.4,329,452.6,327.8,452.6z"/>
	<path class="st1" d="M100,345.1c-6.8,0-13.5-0.9-20-2.5c-0.2,0-0.3-0.1-0.5-0.1c-16-4.2-30.1-13.2-40.8-25.9
		c-12-14.4-18.7-32.7-18.7-51.5c0-36.3,24.4-68.1,59.5-77.3c0.2,0,0.3-0.1,0.5-0.1c6.5-1.7,13.3-2.5,20-2.5c44.1,0,80,35.9,80,80
		c0,18.8-6.7,37.1-18.7,51.4C146,334.7,123.7,345.1,100,345.1z M85.3,323.3c4.8,1.2,9.7,1.8,14.7,1.8c17.8,0,34.5-7.8,46-21.4
		c9.1-10.8,14-24.5,14-38.6c0-33.1-26.9-60-60-60c-5,0-9.9,0.6-14.7,1.8c-0.1,0-0.3,0.1-0.4,0.1c-26.5,6.8-45,30.7-45,58.1
		c0,14.1,5,27.8,14,38.6c8.1,9.6,18.8,16.4,30.9,19.5C85.1,323.2,85.2,323.3,85.3,323.3z"/>
	<path class="st1" d="M420,345.1c-23.7,0-46-10.4-61.3-28.6c-12.1-14.3-18.7-32.6-18.7-51.4c0-44.1,35.9-80,80-80
		c6.8,0,13.5,0.9,20,2.5c0.2,0,0.3,0.1,0.5,0.1c35.1,9.3,59.5,41,59.5,77.3c0,18.8-6.6,37.1-18.7,51.4
		c-10.7,12.7-24.8,21.7-40.8,25.9c-0.1,0-0.3,0.1-0.5,0.1C433.5,344.2,426.8,345.1,420,345.1z M420,205.1c-33.1,0-60,26.9-60,60
		c0,14.1,5,27.8,14,38.6c11.4,13.6,28.2,21.4,46,21.4c5,0,9.9-0.6,14.7-1.8c0.1,0,0.3-0.1,0.4-0.1c12.1-3.1,22.8-9.9,30.9-19.5
		c9-10.8,14-24.5,14-38.6c0-27.4-18.5-51.3-45-58.1c-0.1,0-0.3-0.1-0.4-0.1C429.9,205.7,425,205.1,420,205.1z"/>
	<path class="st1" d="M260,505.1c-23.7,0-46-10.4-61.3-28.6c-7.5-9-13.1-19.7-16.1-30.9c0-0.2-0.1-0.3-0.1-0.5
		c-1.7-6.5-2.5-13.3-2.5-20c0-44.1,35.9-80,80-80s80,35.9,80,80c0,6.8-0.9,13.5-2.5,20c0,0.2-0.1,0.3-0.1,0.5
		c-3,11.3-8.5,22-16.1,31C306,494.7,283.7,505.1,260,505.1z M201.8,439.8c0,0.1,0.1,0.3,0.1,0.4c2.2,8.6,6.4,16.7,12.1,23.5
		c11.4,13.6,28.2,21.4,46,21.4s34.5-7.8,46-21.4c5.7-6.8,9.9-14.9,12.1-23.5c0-0.1,0.1-0.3,0.1-0.4c1.2-4.8,1.8-9.7,1.8-14.7
		c0-33.1-26.9-60-60-60s-60,26.9-60,60C200,430.1,200.6,435,201.8,439.8z"/>
	<path class="st1" d="M260,185.1c-23.7,0-46-10.4-61.3-28.6c-12-14.3-18.7-32.6-18.7-51.4c0-6.8,0.9-13.5,2.5-20
		c0-0.2,0.1-0.3,0.1-0.5c9.3-35.1,41-59.5,77.3-59.5c36.4,0,68.1,24.4,77.3,59.5c0,0.1,0.1,0.3,0.1,0.5c1.7,6.5,2.5,13.3,2.5,20
		c0,18.8-6.6,37.1-18.7,51.4C306,174.7,283.7,185.1,260,185.1z M201.8,90.4c-1.2,4.8-1.8,9.7-1.8,14.7c0,14.1,5,27.8,14,38.6
		c11.4,13.6,28.2,21.4,46,21.4s34.5-7.8,46-21.4c9.1-10.8,14-24.5,14-38.6c0-5-0.6-9.9-1.8-14.7c0-0.1-0.1-0.3-0.1-0.4
		c-6.8-26.5-30.7-45-58.1-45s-51.3,18.5-58.1,45C201.9,90.2,201.8,90.3,201.8,90.4z"/>
	<path class="st1" d="M260,315.1c-27.6,0-50-22.4-50-50s22.4-50,50-50s50,22.4,50,50S287.6,315.1,260,315.1z M260,235.1
		c-16.5,0-30,13.5-30,30s13.5,30,30,30s30-13.5,30-30S276.5,235.1,260,235.1z"/>
	<path class="st1" d="M90,475.1c-16.5,0-30-13.5-30-30s13.5-30,30-30s30,13.5,30,30S106.5,475.1,90,475.1z M90,435.1
		c-5.5,0-10,4.5-10,10s4.5,10,10,10s10-4.5,10-10S95.5,435.1,90,435.1z"/>
	<path class="st1" d="M445,115.1c-19.3,0-35-15.7-35-35s15.7-35,35-35s35,15.7,35,35S464.3,115.1,445,115.1z M445,65.1
		c-8.3,0-15,6.7-15,15s6.7,15,15,15s15-6.7,15-15S453.3,65.1,445,65.1z"/>
</g>
<g id="Layer_1_1_">
</g>
</svg>
