<?xml version="1.0" encoding="utf-8"?>
<!-- Generator: Adobe Illustrator 24.1.0, SVG Export Plug-In . SVG Version: 6.00 Build 0)  -->
<svg version="1.1" id="Layer_1" xmlns="http://www.w3.org/2000/svg" xmlns:xlink="http://www.w3.org/1999/xlink" x="0px" y="0px"
	 viewBox="0 0 64 64" style="enable-background:new 0 0 64 64;" xml:space="preserve">
<style type="text/css">
	.st0{fill:none;}
	.st1{fill:#FFFFFF;}
</style>
<path class="st0" d="M18,35l-7-2l-4-6l1-3l4,2l1-5l10-6V9l-5.6-2.1c-3.8,2.2-7,5.2-9.4,8.8s-4.1,7.7-4.7,12L5,31l4,6v5l3,4l4,2
	l4,10.4c1.4,0.7,2.9,1.2,4.4,1.6L23,55l1-5l4-5l0.3-1.4c-0.5-0.9-1.1-2-1.6-3L21,40L18,35z"/>
<path class="st0" d="M49,37v12l6-6l2-9l3.9-3.9C60.6,25,58.9,20,56,15.7S49.1,8,44.5,5.8l0,0L39,8l-2,4l2,2v3l-2.2,2.2
	c1.6,0.9,2.9,2.1,3.8,3.7c0.9,1.5,1.4,3.3,1.4,5.1c-0.1,1.4-0.4,2.7-0.9,4H47L49,37z"/>
<path class="st0" d="M22,28c0,3.3,3.5,10.3,6.3,15.6c1.1,2,2.1,3.8,2.8,4.9c0.1,0.1,0.2,0.3,0.4,0.4C31.7,49,31.8,49,32,49
	s0.3,0,0.5-0.1s0.3-0.2,0.4-0.4c2.4-4.1,9.1-16,9.1-20.5c0-1.8-0.5-3.6-1.4-5.1s-2.2-2.8-3.8-3.7l0,0c-1.5-0.8-3.2-1.2-5-1.2
	c-1.7,0-3.4,0.5-4.9,1.4s-2.7,2.1-3.6,3.7C22.5,24.6,22,26.3,22,28L22,28z M36,28c0,0.8-0.2,1.6-0.7,2.2c-0.4,0.7-1.1,1.2-1.8,1.5
	s-1.5,0.4-2.3,0.2s-1.5-0.5-2-1.1s-0.9-1.3-1.1-2c-0.2-0.8-0.1-1.6,0.2-2.3c0.3-0.7,0.8-1.4,1.5-1.8S31.2,24,32,24
	c1.1,0,2.1,0.4,2.8,1.2C35.6,25.9,36,26.9,36,28z"/>
<path class="st1" d="M32,2c-5.9,0-11.7,1.8-16.7,5.1c-4.9,3.3-8.8,8-11,13.5S1.4,32,2.6,37.9c1.2,5.8,4,11.2,8.2,15.4
	s9.5,7.1,15.4,8.2C32,62.6,38,62,43.5,59.7s10.2-6.1,13.5-11c3.2-5,5-10.8,5-16.7c0-8-3.2-15.6-8.8-21.2S40,2,32,2L32,2z M59.9,29.7
	l-3.6,3.6c-0.1,0.1-0.2,0.3-0.3,0.5l-1.9,8.7L50,46.6V37c0-0.1,0-0.3-0.1-0.4l-2-5c-0.1-0.2-0.2-0.3-0.4-0.5c-0.1,0-0.3-0.1-0.5-0.1
	h-4.5c0.3-1,0.5-2,0.5-3c0-1.8-0.4-3.5-1.2-5c-0.8-1.6-2-2.9-3.4-3.9l1.3-1.3c0.2-0.2,0.3-0.4,0.3-0.7v-3c0-0.3-0.1-0.5-0.3-0.7
	l-1.5-1.5l1.5-3L44.4,7c4.3,2.1,8,5.4,10.7,9.4S59.5,24.9,59.9,29.7L59.9,29.7z M41,28c-0.1,1.2-0.4,2.4-0.8,3.6c0,0,0,0,0,0.1
	C38.3,37.1,33.7,45.2,32,48c-2.1-3.6-9-15.7-9-20c0-2.4,0.9-4.7,2.6-6.4c1.7-1.7,4-2.6,6.4-2.6s4.7,0.9,6.4,2.6
	C40.1,23.3,41,25.6,41,28L41,28z M32,4c3.4,0,6.7,0.6,9.8,1.8l-3.2,1.3c-0.2,0.1-0.4,0.3-0.5,0.5l-2,4C36,11.7,36,12,36,12.2
	s0.1,0.4,0.3,0.6l1.7,1.7v2.2L36.6,18c-1.7-0.8-3.5-1.1-5.4-1c-1.8,0.1-3.6,0.7-5.2,1.7c-1.6,1-2.8,2.4-3.7,4
	C21.5,24.3,21,26.2,21,28c0,2.5,1.9,7.1,4.1,11.5l-3.5-0.4l-2.8-4.6c-0.1-0.2-0.3-0.4-0.6-0.5l-6.6-1.9l-3.5-5.3l0.5-1.4l3,1.5
	C11.7,27,11.8,27,12,27s0.3,0,0.4-0.1c0.1-0.1,0.3-0.2,0.4-0.3c0.1-0.1,0.2-0.3,0.2-0.4l0.9-4.6l9.6-5.8c0.1-0.1,0.3-0.2,0.4-0.4
	C24,15.3,24,15.2,24,15V9c0-0.2-0.1-0.4-0.2-0.6c-0.1-0.2-0.3-0.3-0.5-0.4l-3.5-1.3C23.7,4.9,27.8,4,32,4L32,4z M4,32
	c0-0.2,0-0.5,0-0.7l4,6V42c0,0.2,0.1,0.4,0.2,0.6l3,4c0.1,0.1,0.2,0.2,0.4,0.3l3.7,1.8l2.9,7.6c-4.3-2.4-7.9-6-10.3-10.3
	C5.3,41.8,4,36.9,4,32L4,32z M23,49.8l-1,5c0,0.2,0,0.3,0,0.5l0.9,3.2c-0.7-0.3-1.5-0.5-2.2-0.8l-3.9-10c-0.1-0.2-0.3-0.4-0.5-0.5
	l-3.8-1.9L10,41.7V37c0-0.2-0.1-0.4-0.2-0.5l-4-6l-1.5-3c0.7-4,2.2-7.8,4.5-11.2s5.3-6.2,8.7-8.3L22,9.7v4.7l-9.5,5.7
	c-0.1,0.1-0.2,0.2-0.3,0.3c-0.1,0.1-0.1,0.2-0.2,0.4l-0.7,3.7l-2.8-1.4C8.3,23,8.2,23,8,23c-0.1,0-0.3,0-0.4,0.1s-0.3,0.1-0.4,0.2
	S7,23.5,7,23.7l-1,3c0,0.1,0,0.3,0,0.4c0,0.2,0.1,0.3,0.2,0.4l4,6c0.1,0.2,0.3,0.3,0.6,0.4l6.6,1.9l2.8,4.7c0.1,0.1,0.2,0.2,0.3,0.3
	c0.1,0.1,0.3,0.1,0.4,0.2l5.3,0.7c0.4,0.7,0.7,1.4,1.1,2.1l-0.2,0.8l-3.9,4.8C23.1,49.5,23.1,49.6,23,49.8L23,49.8z M32,60
	c-2.3,0-4.6-0.3-6.8-0.8L24,55l0.9-4.5l3.6-4.5c0.7,1.2,1.3,2.3,1.8,3.1c0.2,0.3,0.4,0.6,0.7,0.7c0.3,0.2,0.6,0.3,1,0.3
	c0.4,0,0.7-0.1,1-0.3s0.6-0.4,0.7-0.7c3.1-5.1,5.8-10.5,8.1-16h4.5l1.7,4.2V49c0,0.2,0.1,0.4,0.2,0.6c0.1,0.2,0.3,0.3,0.5,0.4
	c0,0,0.2,0,0.3,0c0.3,0,0.5-0.1,0.7-0.3l6-6c0.1-0.1,0.2-0.3,0.3-0.5l1.9-8.7l2.1-2.1c-0.1,7.3-3.1,14.4-8.4,19.5
	C46.4,57.1,39.3,60,32,60L32,60z"/>
<path class="st1" d="M37,28c0-1-0.3-2-0.8-2.8s-1.3-1.5-2.2-1.8c-1-0.4-2-0.5-3-0.3s-1.9,0.7-2.6,1.4c-0.7,0.7-1.2,1.6-1.4,2.6
	c-0.2,1-0.1,2,0.3,2.9s1,1.7,1.8,2.2C30,32.7,31,33,32,33c1.3,0,2.6-0.5,3.5-1.5C36.5,30.6,37,29.3,37,28L37,28z M32,31
	c-0.6,0-1.2-0.2-1.7-0.5s-0.9-0.8-1.1-1.3S28.9,28,29,27.5c0.1-0.6,0.4-1.1,0.8-1.5s1-0.7,1.5-0.8c0.6-0.1,1.2-0.1,1.7,0.2
	c0.5,0.2,1,0.6,1.3,1.1s0.5,1.1,0.5,1.7c0,0.8-0.3,1.6-0.9,2.1C33.6,30.7,32.8,31,32,31L32,31z"/>
</svg>
