<?xml version="1.0" encoding="utf-8"?>
<!-- Generator: Adobe Illustrator 24.1.0, SVG Export Plug-In . SVG Version: 6.00 Build 0)  -->
<svg version="1.1" id="Layer_1" xmlns="http://www.w3.org/2000/svg" xmlns:xlink="http://www.w3.org/1999/xlink" x="0px" y="0px"
	 viewBox="0 0 64 64" style="enable-background:new 0 0 64 64;" xml:space="preserve">
<style type="text/css">
	.st0{fill:none;}
	.st1{fill:#FFFFFF;}
</style>
<g id="school">
	<rect x="43" y="38" class="st0" width="16" height="23"/>
	<rect x="5" y="38" class="st0" width="16" height="23"/>
	<path class="st0" d="M32,17L18,27v2h3v32h7v-9c0-2.2,1.8-4,4-4s4,1.8,4,4v9h7V29h3v-2L32,17z M32,39c-3.9,0-7-3.1-7-7s3.1-7,7-7
		s7,3.1,7,7S35.9,39,32,39L32,39z"/>
	<path class="st1" d="M32,24c-4.4,0-8,3.6-8,8s3.6,8,8,8s8-3.6,8-8S36.4,24,32,24z M32,38c-3.3,0-6-2.7-6-6s2.7-6,6-6s6,2.7,6,6
		S35.3,38,32,38z"/>
	<path class="st1" d="M61,33H44v-3h2c0.6,0,1-0.4,1-1v-2c0-0.3-0.2-0.6-0.4-0.8L33,16.5V14h13c0.4,0,0.8-0.3,0.9-0.7
		c0.1-0.4,0-0.8-0.3-1.1l-4-3.2l4-3.2c0.3-0.3,0.5-0.7,0.3-1.1C46.8,4.3,46.4,4,46,4H33V3c0-0.6-0.4-1-1-1l0,0c-0.6,0-1,0.4-1,1
		v13.5l-13.6,9.7C17.2,26.4,17,26.7,17,27v2c0,0.6,0.4,1,1,1h2v3H3c-0.6,0-1,0.4-1,1v4c0,0.6,0.4,1,1,1h1v22c0,0.6,0.4,1,1,1h54
		c0.6,0,1-0.4,1-1V39h1c0.6,0,1-0.4,1-1v-4C62,33.4,61.6,33,61,33z M33,6h10.2l-2.8,2.2c-0.4,0.3-0.5,1-0.2,1.4
		c0,0.1,0.1,0.1,0.2,0.2l2.8,2.2H33V6z M20,60H6V39h14V60z M20,37H4v-2h16V37z M35,60h-6v-8c0-1.7,1.3-3,3-3s3,1.3,3,3V60z M42,29
		v31h-5v-8c0-2.8-2.2-5-5-5s-5,2.2-5,5v8h-5V29c0-0.6-0.4-1-1-1h-2v-0.5l13-9.3l13,9.3V28h-2C42.4,28,42,28.4,42,29z M58,60H44V39
		h14V60z M60,37H44v-2h16V37z"/>
	<path class="st1" d="M32,28c0.6,0,1,0.4,1,1v3c0,0.3-0.1,0.5-0.3,0.7L31.4,34c-0.4,0.4-1,0.4-1.4,0l0,0l0,0c-0.4-0.4-0.4-1,0-1.4
		l0,0l1-1V29C31,28.4,31.4,28,32,28z"/>
</g>
</svg>
